<svg xmlns="http://www.w3.org/2000/svg" viewBox="0 0 88 88" fill="none">
  <config id="fm-config" display="none">
    <property
      name="gradientColor1"
      type="color"
      target="--gradient-1"
      default="#E92D18"
      label="gradient 1"
    />
    <property
      name="gradientColor2"
      type="color"
      target="--gradient-2"
      default="#3174F1"
      label="gradient 2"
    />
    <property
      name="gradientColor3"
      type="color"
      target="--gradient-3"
      default="#249A41"
      label="gradient 3"
    />
    <property
      name="gradientColor4"
      type="color"
      target="--gradient-4"
      default="#F6AD01"
      label="gradient 4"
    />

    <property
      name="frameRotation"
      type="range"
      target="--frame-rotation"
      default="0"
      min="-180"
      max="180"
      step="1"
      unit="deg"
      label="Frame Rotation"
    />

     <property
      name="hueRotation"
      type="range"
      target="--hue-rotate"
      default="0"
      min="-180"
      max="180"
      step="1"
      unit="deg"
      label="Frame Hue"
    />
  </config>

  <g
    style="
      transform-origin: center;
      transform: rotate(var(--frame-rotation, 0deg));
      filter: hue-rotate(var(--hue-rotate, 0deg));
    "
  >
    <path
      fill-rule="evenodd"
      clip-rule="evenodd"
      d="M6.54186 25.1943C13.4332 11.4946 27.619 2.09524 44.0001 2.09524C54.8512 2.09524 64.7391 6.21967 72.1814 12.9864L73.6119 11.4618C65.8019 4.33354 55.4184 0 44.0002 0C26.862 0 12.012 9.81177 4.75195 24.1118L6.54186 25.1943Z"
      fill="var(--gradient-1, #E92D18)"
    ></path>
    <path
      fill-rule="evenodd"
      clip-rule="evenodd"
      d="M72.2777 74.9259C80.6525 67.264 85.9049 56.2454 85.9049 44C85.9049 31.7078 80.6122 20.6517 72.1814 12.9863L73.6118 11.4618C82.4565 19.5136 88.0001 31.13 88.0001 44C88.0001 56.87 82.4783 68.4636 73.6783 76.4936L72.2777 74.9259Z"
      fill="var(--gradient-2, #3174F1)"
    ></path>
    <path
      fill-rule="evenodd"
      clip-rule="evenodd"
      d="M6.7633 63.2399L4.88354 64.1953C12.21 78.3418 26.9718 87.9989 44 87.9989C55.44 87.9989 65.8465 83.6424 73.6565 76.4924L72.2718 74.9311C64.8192 81.7468 54.8952 85.9048 43.9999 85.9048C27.7925 85.9048 13.734 76.7036 6.7633 63.2399Z"
      fill="var(--gradient-3, #249A41)"
    ></path>
    <path
      fill-rule="evenodd"
      clip-rule="evenodd"
      d="M6.54202 25.1938L4.75292 24.1118C1.71646 30.0736 0 36.85 0 44C0 51.15 1.76 58.1465 4.90646 64.1965L6.76859 63.25C3.78227 57.4858 2.09524 50.9399 2.09524 44C2.09524 37.2376 3.69708 30.8493 6.54202 25.1938Z"
      fill="var(--gradient-4, #F6AD01)"
    ></path>
  </g>
</svg>
