<svg width="800" height="800" viewBox="0 0 800 800" fill="none" xmlns="http://www.w3.org/2000/svg">
<mask id="mask0_46_29" style="mask-type:alpha" maskUnits="userSpaceOnUse" x="0" y="0" width="800" height="800">
<path fill="#B86B6B" d="M400 0C620.914 1.28922e-07 800 179.086 800 400C800 620.914 620.914 800 400 800C179.086 800 1.28855e-07 620.914 0 400C0 179.086 179.086 0 400 0ZM400 130C250.883 130 130 250.883 130 400C130 549.117 250.883 670 400 670C549.117 670 670 549.117 670 400C670 250.883 549.117 130 400 130Z" />
</mask>
<g mask="url(#mask0_46_29)">
<rect y="-0.799988" width="800" height="800" fill="url(#paint0_radial_46_29)"/>
</g>

<!-- <defs> -->

<path x="0" y="0" id="curve" stroke="#ff00ffff00" stroke-width="10" d="M00 400 A 100 100 0 0 0 800 400 A 100 100 0 0 0 0 400" transform="translate(40, 60) scale(0.87)" />

<!-- <path x="0" y="0" id="curve" stroke="#ff00ffff" stroke-width="10" d="M00 400 A 300 300 0 1 0 0 403" transform="translate(610, 60) scale(0.87)" /> -->
<!-- todo: make position/transform configurable, and arc params too -->
<!-- ref to svg arc explanation:  -->
<!-- https://www.joshwcomeau.com/svg/interactive-guide-to-paths/ -->

<!-- </defs> -->

<text fill="var(--text-color)" xml:space="preserve" style="white-space: pre" font-family="var(--font-family)" font-size="var(--font-size)" font-weight="800" letter-spacing="0.08em">
<textPath startOffset="0%" href="#curve">
    <tspan id="frame-text" x="0">#OPENTOWORK</tspan>
</textPath>
</text>


<!-- <path d="M74.2075 443.17L73.4059 437.081L64.5506 436.716L65.3522 442.806L74.2075 443.17ZM84.4346 459.625L79.6966 459.353C78.5182 459.284 77.6101 458.906 76.9722 458.219C76.3621 457.553 75.9508 456.413 75.7383 454.799L75.4341 452.488L66.5788 452.123L67.1003 456.085C67.2516 457.235 67.0171 458.099 66.3967 458.678C65.8008 459.254 64.6781 459.514 63.0286 459.458L59.4297 459.334L58.4736 452.071L43.6455 451.41L42.9502 446.128C42.8825 445.614 42.9404 445.109 43.1238 444.612C43.3104 444.14 43.5907 443.717 43.9646 443.345C44.3417 442.997 44.7912 442.726 45.3131 442.533C45.8351 442.34 46.4098 442.264 47.0373 442.306L57.247 442.753L56.4502 436.7L45.6854 436.289C44.9601 436.26 44.3181 436.108 43.7595 435.833C43.2285 435.58 42.7735 435.242 42.3944 434.819C42.0185 434.42 41.7202 433.95 41.4994 433.407C41.2818 432.888 41.1344 432.335 41.0572 431.748L40.3908 426.686L55.2188 427.346L54.7938 424.118C54.6425 422.969 54.8648 422.106 55.4607 421.53C56.0811 420.951 57.216 420.689 58.8655 420.746L62.4644 420.869L63.324 427.399L72.1793 427.763L71.2183 420.463L75.9563 420.735C77.1103 420.807 78.0045 421.174 78.6391 421.837C79.277 422.525 79.7021 423.675 79.9146 425.289L80.243 427.784L91.2424 428.277C92.4207 428.345 93.3858 428.778 94.1376 429.575C94.917 430.393 95.3839 431.389 95.5385 432.562L96.2242 437.772L81.4695 437.101L82.2712 443.191L97.0258 443.861L97.6922 448.923C97.7695 449.51 97.7409 450.049 97.6064 450.539C97.4752 451.054 97.2593 451.493 96.9587 451.856C96.6859 452.24 96.3268 452.536 95.8814 452.744C95.4606 452.949 94.9747 453.038 94.4238 453.011L83.4977 452.509L84.4346 459.625ZM90.3978 522.774C86.6802 523.945 83.0179 524.386 79.4106 524.099C75.8108 523.836 72.4561 522.913 69.3466 521.332C66.2606 519.743 63.5286 517.513 61.1507 514.641C58.7801 511.793 56.9654 508.369 55.7065 504.369C54.4475 500.369 53.9702 496.511 54.2746 492.795C54.5789 489.078 55.5373 485.674 57.1496 482.58C58.7928 479.503 61.0107 476.814 63.8033 474.512C66.6034 472.235 69.8621 470.511 73.5797 469.341C77.2972 468.171 80.9559 467.717 84.5557 467.981C88.1629 468.268 91.5095 469.205 94.5956 470.794C97.689 472.407 100.425 474.649 102.803 477.521C105.181 480.392 106.999 483.828 108.258 487.828C109.517 491.828 109.979 495.678 109.643 499.378C109.339 503.094 108.377 506.487 106.757 509.557C105.138 512.627 102.928 515.301 100.128 517.579C97.3351 519.88 94.0918 521.612 90.3978 522.774ZM86.5543 510.563C89.0954 509.763 91.274 508.715 93.0901 507.42C94.9297 506.117 96.3592 504.619 97.3784 502.928C98.405 501.26 99.0134 499.414 99.2035 497.389C99.3936 495.363 99.1295 493.21 98.4111 490.927C97.6854 488.622 96.6609 486.681 95.3378 485.107C94.022 483.555 92.462 482.378 90.6578 481.576C88.861 480.797 86.8354 480.4 84.5811 480.385C82.3502 480.363 79.9643 480.752 77.4232 481.552C74.8585 482.359 72.6564 483.414 70.8168 484.718C69.0006 486.013 67.5793 487.495 66.5526 489.163C65.5334 490.854 64.9287 492.712 64.7386 494.738C64.5795 496.779 64.8628 498.952 65.5885 501.258C66.3069 503.541 67.3122 505.461 68.6044 507.02C69.9201 508.571 71.4764 509.736 73.2732 510.515C75.0774 511.318 77.095 511.73 79.3258 511.752C81.5801 511.767 83.9896 511.37 86.5543 510.563ZM104.503 551.574C106.02 554.454 107.799 556.166 109.841 556.707C111.883 557.249 114.136 556.87 116.603 555.572C117.694 554.997 118.601 554.31 119.323 553.512C120.046 552.713 120.545 551.809 120.822 550.799C121.131 549.799 121.191 548.694 121 547.485C120.82 546.297 120.363 545.005 119.627 543.608L116.592 537.846L101.468 545.812L104.503 551.574ZM127.909 539.246C129.68 542.607 130.793 545.7 131.25 548.526C131.74 551.362 131.695 553.923 131.114 556.208C130.545 558.516 129.507 560.54 127.999 562.282C126.491 564.024 124.635 565.476 122.43 566.637C120.052 567.89 117.668 568.657 115.28 568.939C112.891 569.221 110.574 568.95 108.328 568.126C106.082 567.302 103.917 565.891 101.833 563.894C99.7832 561.907 97.8903 559.266 96.1546 555.97L93.12 550.209L77.177 558.605L71.3492 547.54L119.047 522.419L127.909 539.246ZM141.943 581.165L131.832 588.65L141.915 602.27L134.48 607.773L124.397 594.153L114.078 601.793L127.243 619.576L119.511 625.3L98.8614 597.405L142.19 565.33L162.84 593.224L155.108 598.948L141.943 581.165ZM202.513 632.84L165.12 671.672L160.429 667.155C159.736 666.487 159.253 665.816 158.978 665.141C158.739 664.465 158.653 663.629 158.722 662.634L162.714 621.842C162.118 622.603 161.512 623.321 160.897 623.995C160.316 624.669 159.752 625.291 159.205 625.859L139.161 646.674L131.219 639.026L168.612 600.194L173.356 604.763C173.747 605.139 174.058 605.473 174.291 605.765C174.523 606.058 174.694 606.36 174.805 606.672C174.933 606.966 175.009 607.296 175.033 607.662C175.057 608.028 175.048 608.481 175.006 609.023L171.02 650.129C171.65 649.297 172.28 648.518 172.912 647.791C173.561 647.046 174.185 646.362 174.784 645.74L194.571 625.192L202.513 632.84ZM237.719 670.547L225.173 662.02L200.444 698.405L190.101 691.375L214.829 654.99L202.283 646.463L207.857 638.262L243.293 662.346L237.719 670.547ZM285.908 711.793C284.304 715.345 282.193 718.371 279.576 720.87C276.982 723.379 274.059 725.267 270.808 726.532C267.568 727.775 264.084 728.327 260.358 728.187C256.655 728.058 252.892 727.13 249.07 725.404C245.249 723.679 242.053 721.464 239.485 718.762C236.916 716.059 235.015 713.076 233.782 709.813C232.582 706.537 232.054 703.092 232.198 699.476C232.364 695.87 233.25 692.292 234.854 688.74C236.457 685.188 238.557 682.157 241.151 679.648C243.768 677.149 246.697 675.278 249.938 674.035C253.201 672.802 256.696 672.255 260.422 672.395C264.148 672.534 267.922 673.467 271.743 675.193C275.565 676.919 278.744 679.139 281.28 681.854C283.849 684.557 285.738 687.534 286.949 690.787C288.159 694.041 288.681 697.47 288.515 701.075C288.371 704.691 287.502 708.264 285.908 711.793ZM274.24 706.525C275.337 704.097 276.007 701.774 276.25 699.556C276.504 697.316 276.339 695.253 275.757 693.366C275.197 691.489 274.225 689.806 272.842 688.315C271.458 686.824 269.676 685.586 267.495 684.601C265.292 683.606 263.162 683.078 261.106 683.016C259.073 682.964 257.156 683.343 255.355 684.154C253.577 684.975 251.932 686.221 250.419 687.893C248.917 689.542 247.618 691.58 246.521 694.008C245.415 696.459 244.735 698.804 244.481 701.044C244.237 703.262 244.396 705.309 244.955 707.186C245.538 709.072 246.521 710.761 247.905 712.252C249.321 713.731 251.131 714.967 253.334 715.962C255.515 716.947 257.616 717.477 259.64 717.551C261.673 717.603 263.579 717.219 265.357 716.398C267.158 715.587 268.809 714.357 270.312 712.708C271.824 711.036 273.134 708.975 274.24 706.525ZM374.352 703.75L347.312 753.27L336.216 751.018L332.927 716.258C332.836 715.712 332.768 715.119 332.721 714.48C332.679 713.817 332.643 713.13 332.611 712.419C332.304 713.061 332.003 713.68 331.706 714.274C331.414 714.844 331.12 715.363 330.823 715.832L314.097 746.529L303.001 744.277L297.407 688.133L307.705 690.223C308.769 690.439 309.602 690.86 310.205 691.486C310.832 692.117 311.173 692.853 311.229 693.695L312.888 722.725C312.929 723.639 312.953 724.638 312.959 725.722C312.971 726.781 312.972 727.889 312.964 729.045C313.861 726.861 314.802 724.951 315.789 723.314L329.94 697.492C330.295 696.86 330.877 696.348 331.685 695.959C332.524 695.55 333.45 695.449 334.466 695.655L338.092 696.391C339.155 696.607 339.962 697.035 340.512 697.675C341.066 698.291 341.434 699.02 341.616 699.862L344.507 729.142C344.792 730.962 344.934 732.992 344.932 735.232C345.347 734.183 345.746 733.207 346.131 732.304C346.545 731.381 346.946 730.518 347.335 729.716L360.181 703.63C360.517 702.968 361.101 702.445 361.934 702.061C362.767 701.676 363.692 701.587 364.707 701.793L374.352 703.75ZM431.516 729.658C431.609 733.554 431.017 737.195 429.741 740.581C428.489 743.966 426.672 746.934 424.291 749.482C421.908 752.007 419.007 754.013 415.589 755.501C412.194 756.988 408.401 757.782 404.209 757.882C400.017 757.982 396.178 757.37 392.692 756.047C389.206 754.724 386.201 752.859 383.676 750.452C381.175 748.019 379.207 745.142 377.771 741.821C376.359 738.499 375.607 734.89 375.514 730.994C375.421 727.097 376 723.457 377.252 720.071C378.528 716.685 380.357 713.73 382.74 711.206C385.147 708.681 388.06 706.674 391.479 705.187C394.897 703.699 398.703 702.905 402.895 702.805C407.087 702.705 410.914 703.329 414.376 704.677C417.862 706 420.855 707.866 423.355 710.274C425.855 712.681 427.811 715.546 429.223 718.868C430.659 722.189 431.423 725.786 431.516 729.658ZM418.717 729.963C418.654 727.3 418.251 724.916 417.51 722.812C416.769 720.683 415.727 718.894 414.385 717.446C413.067 715.997 411.462 714.9 409.569 714.156C407.676 713.411 405.533 713.068 403.141 713.125C400.725 713.182 398.576 713.628 396.696 714.463C394.841 715.297 393.278 716.469 392.006 717.98C390.759 719.49 389.816 721.326 389.176 723.488C388.537 725.625 388.248 728.025 388.312 730.688C388.376 733.376 388.779 735.785 389.521 737.914C390.262 740.018 391.291 741.794 392.609 743.243C393.951 744.692 395.569 745.788 397.462 746.533C399.379 747.252 401.545 747.582 403.962 747.525C406.354 747.468 408.478 747.035 410.334 746.225C412.189 745.392 413.74 744.22 414.987 742.709C416.259 741.199 417.215 739.375 417.855 737.238C418.494 735.076 418.781 732.651 418.717 729.963ZM461.422 723.283C463.089 722.937 464.459 722.438 465.533 721.787C466.626 721.107 467.469 720.314 468.062 719.41C468.656 718.506 469.018 717.524 469.151 716.463C469.278 715.379 469.222 714.257 468.981 713.097C468.499 710.779 467.362 709.126 465.57 708.137C463.802 707.144 461.336 706.976 458.172 707.633L453.245 708.656L456.495 724.306L461.422 723.283ZM493.241 745.848L482.156 748.151C480.103 748.577 478.469 748.11 477.255 746.75L465.305 733.247C464.759 732.68 464.203 732.304 463.635 732.12C463.063 731.911 462.306 731.905 461.364 732.1L458.248 732.747L462.304 752.274L450.059 754.817L439.097 702.034L456.268 698.468C460.084 697.675 463.415 697.399 466.262 697.639C469.127 697.85 471.551 698.481 473.532 699.531C475.538 700.575 477.125 701.971 478.294 703.719C479.463 705.466 480.281 707.463 480.748 709.709C481.104 711.424 481.21 713.089 481.068 714.706C480.925 716.323 480.542 717.876 479.919 719.366C479.291 720.832 478.419 722.21 477.301 723.5C476.207 724.785 474.871 725.932 473.292 726.94C474.174 727.185 475.031 727.549 475.861 728.031C476.687 728.49 477.466 729.084 478.197 729.814L493.241 745.848ZM507.537 707.277L509.402 706.562C511.13 705.9 512.166 704.882 512.511 703.508L517.539 682.719C517.871 681.587 518.356 680.715 518.992 680.101C519.643 679.455 520.544 678.912 521.696 678.47L531.853 674.576L524.729 700.647C524.208 702.458 523.456 703.908 522.474 704.998C523.473 704.985 524.439 705.13 525.374 705.432C526.309 705.734 527.264 706.226 528.239 706.909L552.393 724.437L541.96 728.436C541.292 728.692 540.698 728.867 540.179 728.96C539.683 729.045 539.227 729.061 538.811 729.009C538.395 728.958 538.012 728.853 537.661 728.697C537.302 728.518 536.941 728.3 536.578 728.043L518.462 714.897C517.801 714.411 517.099 714.165 516.357 714.159C515.629 714.121 514.724 714.309 513.641 714.724L510.808 715.81L519.019 737.23L507.342 741.707L488.045 691.37L499.723 686.893L507.537 707.277Z" fill="white"/> -->

<defs>
<radialGradient id="paint0_radial_46_29" cx="0" cy="0" r="1" gradientUnits="userSpaceOnUse" gradientTransform="translate(922.8 -374.4) rotate(128.178) scale(1492.95)">
<stop offset="0.676088" stop-color="var(--color)" stop-opacity="0"/>
<stop offset="0.70219" stop-color="var(--color)" stop-opacity="0.15"/>
<stop offset="0.743414" stop-color="var(--color)" stop-opacity="0.539009"/>
<stop offset="0.773275" stop-color="var(--color)"/>
</radialGradient>
</defs>
</svg>
